<?xml version="1.0" standalone="yes"?>
<svg xmlns="http://www.w3.org/2000/svg" width="800" height="800">
<path style="fill:#f7f7f9; stroke:none;" d="M0 0L0 800L800 800L800 0L0 0z"/>
<path style="fill:#4687f4; stroke:none;" d="M238 364L162 364L162 386L215 386C213.527 419.789 175.549 436.561 146 428.09C112.577 418.509 95.1612 380.829 107.615 349C111.565 338.905 118.494 330.209 127 323.518C142.198 311.562 163.885 308.585 182 315.09C187.777 317.165 196.264 325.958 202 325.808C207.479 325.665 214.358 315.642 218 312C208.418 298.99 189.456 292.142 174 290C119.337 282.426 69.9608 330.82 80.2608 386C91.6115 446.809 172.407 475.87 217.91 431.829C237.423 412.944 238.069 389.017 238 364z"/>
<path style="fill:#558060; stroke:none;" d="M591 295L591 450L614 450L614 295L591 295z"/>
<path style="fill:#fbbe07; stroke:none;" d="M296 347L296 348L305 348L296 347M414 347.71C406.32 347.813 399.027 349.122 392 352.312C340.792 375.562 360.865 454.069 416 452.985C470.003 451.922 488.289 375.145 438 352.312C430.37 348.848 422.337 347.598 414 347.71z"/>
<path style="fill:#4687f4; stroke:none;" d="M555 441C555 451.053 555.488 460.446 549.211 468.985C535.034 488.273 511.103 477.43 501 461L481 469C491.784 506.362 550.065 510.53 569.532 479C578.371 464.683 578 446.232 578 430L578 351L555 351L555 359C546.485 350.927 535.78 346.824 524 347.755C514.698 348.49 506.788 351.1 499 356.36C475.405 372.294 469.769 405.272 484.468 429C499.519 453.298 533.63 461.391 555 441z"/>
<path style="fill:#fbbe07; stroke:none;" d="M668 347L668 348L678 348L668 347M289.667 348.333L290.333 348.667L289.667 348.333z"/>
<path style="fill:#eb4436; stroke:none;" d="M291 348.439C283.888 349.558 277.058 352.205 271 356.09C226.362 384.715 252.435 460.245 306 452.572C314.817 451.309 323.582 448.887 331 443.779C377.751 411.587 345.28 339.895 291 348.439z"/>
<path style="fill:#fbbe07; stroke:none;" d="M311 348L312 349L311 348M662.667 348.333L663.333 348.667L662.667 348.333z"/>
<path style="fill:#eb4436; stroke:none;" d="M720 429L701 418C686.345 438.791 663.81 433.901 650 416L721 387C716.084 374.325 710.01 361.922 698 354.468C660.391 331.124 621.346 366.861 624.089 406C627.41 453.371 695.78 470.901 720 429z"/>
<path style="fill:#fbbe07; stroke:none;" d="M683 348L684 349L683 348M285 349L286 350L285 349M315 349L316 350L315 349M659 349L660 350L659 349M687 349L688 350L687 349M282 350L283 351L282 350M318 350L319 351L318 350M656 350L657 351L656 350M279 351L280 352L279 351M321 351L322 352L321 351M653 351L654 352L653 351M692 351L693 352L692 351M277 352L278 353L277 352M323 352L324 353L323 352M651 352L652 353L651 352M694 352L695 353L694 352M275 353L276 354L275 353M649 353L650 354L649 353M696 353L697 354L696 353M273 354L274 355L273 354M327 354L328 355L327 354M329 355L330 356L329 355M699 355L700 356L699 355M270 356L271 357L270 356M643 357L644 358L643 357M267 358L268 359L267 358M333 358L334 359L333 358M266 359L267 360L266 359M704 359L705 360L704 359M705 360L706 361L705 360M706 361L707 362L706 361M259 366L260 367L259 366M634 366L635 367L634 366M710 366L711 367L710 366M711 367L712 368L711 367M296 368L296 369L299 369L296 368z"/>
<path style="fill:#f7f7f9; stroke:none;" d="M299 368.468C259.474 372.409 264.269 436.082 304 431.826C341.199 427.842 336.885 364.689 299 368.468z"/>
<path style="fill:#fbbe07; stroke:none;" d="M303.667 368.333L304.333 368.667L303.667 368.333M343 368L344 369L343 368z"/>
<path style="fill:#f7f7f9; stroke:none;" d="M411 368.44C371.976 374.66 380.301 437.562 420 431.699C457.721 426.128 449.31 362.333 411 368.44M525 368.465C486.981 375.137 494.868 438.533 534 431.671C569.27 425.487 561.658 362.033 525 368.465z"/>
<path style="fill:#fbbe07; stroke:none;" d="M668.667 368.333L669.333 368.667L668.667 368.333z"/>
<path style="fill:#f7f7f9; stroke:none;" d="M647 398L693 379C689.09 367.6 673.782 366.004 664 370.349C652.341 375.527 647.034 385.682 647 398z"/>
<path style="fill:#fbbe07; stroke:none;" d="M679.667 368.333L680.333 368.667L679.667 368.333M292 369L293 370L292 369M309 369L310 370L309 369M665 369L666 370L665 369M683 369L684 370L683 369M256 370L257 371L256 370M289 370L290 371L289 370M311 370L312 371L311 370M663 370L664 371L663 370M685 370L686 371L685 370M713 370L714 371L713 370M287 371L288 372L287 371M345 371L346 372L345 371M661 371L662 372L661 371M285 372L286 373L285 372M630 372L631 373L630 372M714 372L715 373L714 372M254 373L255 374L254 373M317 373L318 374L317 373M658 373L659 374L658 373M318 374L319 375L318 374M629 374L630 375L629 374M253 375L254 376L253 375M281 375L282 376L281 375M280 376L281 377L280 376M628 376L629 377L628 376M692 376L693 377L692 376M252 377L253 378L252 377M279 377L280 378L279 377M627 378L628 379L627 378M693 378L694 379L693 378M717 378L718 379L717 378M323 379L324 380L323 379M692 379L693 380L692 379M651 380L652 381L651 380M718 380L719 381L718 380M350 381L351 382L350 381M626 381L627 382L626 381M687 381L688 382L687 381M250 382L251 383L250 382M685 382L686 383L685 382M719 383L720 384L719 383M274 384L275 385L274 384M351 384L352 385L351 384M625.333 384.667L625.667 385.333L625.333 384.667M680 384L681 385L680 384M720 385L721 386L720 385M249 386L250 387L249 386M273 386L274 387L273 386M648 386L649 387L648 386M675 386L676 387L675 386M673 387L674 388L673 387M719 387L720 388L719 387M328 388L329 389L328 388M352.333 388.667L352.667 389.333L352.333 388.667M670 388L671 389L670 388M717 388L718 389L717 388M272 389L273 390L272 389M624.333 389.667L624.667 390.333L624.333 389.667M647 389L648 390L647 389M668 389L669 390L668 389M248.333 390.667L248.667 391.333L248.333 390.667M712 390L713 391L712 390M329.333 391.667L329.667 392.333L329.333 391.667M663 391L664 392L663 391M661 392L662 393L661 392M707 392L708 393L707 392M271.333 393.667L271.667 394.333L271.333 393.667M658 393L659 394L658 393M705 393L706 394L705 393M353 394L353 400L354 400L353 394M656 394L657 395L656 394M702 394L703 395L702 394M700 395L701 396L700 395M646.333 396.667L646.667 397.333L646.333 396.667M651 396L652 397L651 396M695 397L696 398L695 397M330 398L330 402L331 402L330 398M623 398L623 402L624 402L623 398M693 398L694 399L693 398M690 399L691 400L690 399M688 400L689 401L688 400M353 401L353 406L354 406L353 401M683 402L684 403L683 402M678 404L679 405L678 404M676 405L677 406L676 405M271.333 406.667L271.667 407.333L271.333 406.667M673 406L674 407L673 406M671 407L672 408L671 407M329 408L330 409L329 408M248.333 409.667L248.667 410.333L248.333 409.667M624.333 409.667L624.667 410.333L624.333 409.667M666 409L667 410L666 409M272 410L273 411L272 410M328 411L329 412L328 411M352 411L353 412L352 411M661 411L662 412L661 411M659 412L660 413L659 412M273 413L274 414L273 413M656 413L657 414L656 413M249 414L250 415L249 414M327 414L328 415L327 414M625 414L626 415L625 414M654 414L655 415L654 414M274 415L275 416L274 415M351 415L352 416L351 415M326 416L327 417L326 416M650 416L651 417L650 416M250 417L251 418L250 417M275 417L276 418L275 417M350 418L351 419L350 418M703 418L704 419L703 418M324 419L325 420L324 419M652 419L653 420L652 419M700 419L701 420L700 419M251 420L252 421L251 420M277 420L278 421L277 420M627 420L628 421L627 420M706 420L707 421L706 420M278 421L279 422L278 421M349 421L350 422L349 421M252 422L253 423L252 422M654 422L655 423L654 422M709 422L710 423L709 422M348 423L349 424L348 423M655 423L656 424L655 423M253 424L254 425L253 424M656 424L657 425L656 424M712 424L713 425L712 424M282 425L283 426L282 425M347 425L348 426L347 425M657 425L658 426L657 425M254 426L255 427L254 426M283 426L284 427L283 426M658 426L659 427L658 426M693 426L694 427L693 426M715 426L716 427L715 426M316 427L317 428L316 427M286 428L287 429L286 428M314 428L315 429L314 428M631 428L632 429L631 428M661 428L662 429L661 428M690 428L691 429L690 428M718 428L719 429L718 428M288 429L289 430L288 429M312 429L313 430L312 429M663 429L664 430L663 429M688 429L689 430L688 429M291 430L292 431L291 430M310 430L311 431L310 430M344 430L345 431L344 430M685 430L686 431L685 430M294.667 431.333L295.333 431.667L294.667 431.333M306 431L307 432L306 431M343 431L344 432L343 431M633 431L634 432L633 431M669.667 431.333L670.333 431.667L669.667 431.333M681.667 431.333L682.333 431.667L681.667 431.333M718 431L719 432L718 431M258 432L259 433L258 432M340 435L341 436L340 435M636 435L637 436L636 435M339 436L340 437L339 436M637 436L638 437L637 436M714 436L715 437L714 436M338 437L339 438L338 437M638 437L639 438L638 437M713 437L714 438L713 437M337 438L338 439L337 438M639 438L640 439L639 438M336 439L337 440L336 439M640 439L641 440L640 439M641 440L642 441L641 440M268 442L269 443L268 442M332 442L333 443L332 442M707 442L708 443L707 442M331 443L332 444L331 443M645 443L646 444L645 443M271 444L272 445L271 444M648 445L649 446L648 445M326 446L327 447L326 446M650 446L651 447L650 446M701 446L702 447L701 446M324 447L325 448L324 447M652 447L653 448L652 447M699 447L700 448L699 447M322 448L323 449L322 448M654 448L655 449L654 448M697 448L698 449L697 448M281 449L282 450L281 449M319 449L320 450L319 449M694 449L695 450L694 449M284 450L285 451L284 450M316 450L317 451L316 450M659 450L660 451L659 450M692 450L693 451L692 450M288 451L289 452L288 451M312.667 451.333L313.333 451.667L312.667 451.333M663 451L664 452L663 451M688 451L689 452L688 451M293.667 452.333L294.333 452.667L293.667 452.333M306.667 452.333L307.333 452.667L306.667 452.333M668 452L668 453L671 453L668 452M681 452L681 453L684 453L681 452M427 481L427 482L436 482L427 481z"/>
<path style="fill:#558060; stroke:none;" d="M427 482L427 538L436 538C436 530.458 433.861 519.102 436.603 512.04C438.046 508.325 442.967 505.007 446.891 507.046C454.482 510.99 451 530.791 451 538L460 538C460 526.004 465.23 491.039 443.002 498.877C440.422 499.787 438.222 501.456 436 503L436 482L427 482M158 486L158 538L167 538L167 518C179.651 518.149 177.896 529.585 185.637 536.397C188.289 538.73 192.733 538 196 538L184 516C194.203 511.499 199.223 495.308 187.957 488.533C179.876 483.674 167.078 486 158 486z"/>
<path style="fill:#fbbe07; stroke:none;" d="M189 489L190 490L189 489z"/>
<path style="fill:#f7f7f9; stroke:none;" d="M167 493L167 510C171.145 510 176.061 510.673 179.956 508.991C185.208 506.723 187.133 498.54 181.852 495.14C177.654 492.437 171.752 493.001 167 493z"/>
<path style="fill:#fbbe07; stroke:none;" d="M177 493L178 494L177 493M181 494L182 495L181 494M215 498L216 499L215 498z"/>
<path style="fill:#558060; stroke:none;" d="M235 535L232 529C221.911 532.759 215.939 530.93 211 521C216.008 521 232.607 523.644 235.806 519.397C245.012 507.175 223.519 494.545 213 499.573C199.993 505.789 198.594 526.934 210.04 535.351C218.17 541.329 226.657 538.422 235 535z"/>
<path style="fill:#fbbe07; stroke:none;" d="M225 498L226 499L225 498M251 498L252 499L251 498z"/>
<path style="fill:#558060; stroke:none;" d="M241 534C249.948 539.198 279.651 540.772 269.821 522.04C267.033 516.727 253.207 514.792 253.207 509.015C253.207 502.891 266.743 508.695 270 502C261.359 497.088 235.313 497.186 244.179 513.957C246.941 519.181 261.937 521.671 261.079 527.907C259.98 535.884 245.419 525.788 241 534z"/>
<path style="fill:#fbbe07; stroke:none;" d="M262 498L263 499L262 498M290 498L291 499L290 498z"/>
<path style="fill:#558060; stroke:none;" d="M310 535L307 529C296.911 532.759 290.939 530.93 286 521C291.008 521 307.607 523.644 310.806 519.397C320.012 507.175 298.519 494.545 288 499.573C274.993 505.789 273.594 526.934 285.04 535.351C293.17 541.329 301.657 538.422 310 535z"/>
<path style="fill:#fbbe07; stroke:none;" d="M300 498L301 499L300 498z"/>
<path style="fill:#558060; stroke:none;" d="M319 503L322 509C329.092 506.091 337.856 502.624 340 513C333.395 513.526 324.286 514.831 319.854 520.329C314.604 526.844 317.891 536.581 326.001 538.463C331.62 539.767 336.468 536.961 341 534L342 538L349 538C349 522.409 353.598 491.524 328 498.789C324.788 499.7 321.865 501.334 319 503M369 505L369 499L361 499L361 538L370 538C370 525.508 366.393 506.426 384 506L385 498C377.784 498.021 374.173 499.952 369 505z"/>
<path style="fill:#fbbe07; stroke:none;" d="M401 498L402 499L401 498z"/>
<path style="fill:#558060; stroke:none;" d="M416 528C412.55 529.406 408.854 531.503 405.004 530.551C395.08 528.098 394.807 513.031 402.105 507.667C406.364 504.537 410.552 506.578 415 508C421.497 495.486 401.528 496.878 395.04 501.649C381.989 511.246 385.983 534.794 402 538.471C409.708 540.24 420.33 537.183 416 528z"/>
<path style="fill:#fbbe07; stroke:none;" d="M443 498L444 499L443 498M325 499L326 500L325 499M414 499L415 500L414 499M194.333 500.667L194.667 501.333L194.333 500.667M247 500L248 501L247 500M323 500L324 501L323 500M321 501L322 502L321 501M372 501L373 502L372 501M384 501L385 502L384 501M417 501L418 502L417 501M438 501L439 502L438 501M319 502L320 503L319 502M371 502L372 503L371 502M458 503L459 504L458 503M347 504L348 505L347 504z"/>
<path style="fill:#f7f7f9; stroke:none;" d="M211 515L228 515C227.263 501.553 214.368 504.264 211 515z"/>
<path style="fill:#fbbe07; stroke:none;" d="M223 505L224 506L223 505z"/>
<path style="fill:#f7f7f9; stroke:none;" d="M286 515L303 515C302.263 501.553 289.368 504.264 286 515z"/>
<path style="fill:#fbbe07; stroke:none;" d="M298 505L299 506L298 505M330 505L331 506L330 505M334 505L335 506L334 505M405 505L406 506L405 505M390 506L391 507L390 506M411 506L412 507L411 506M441 506L442 507L441 506M214 507L215 508L214 507M226 507L227 508L226 507M266 507L267 508L266 507M289 507L290 508L289 507M301 507L302 508L301 507M338 507L339 508L338 507M235 508L236 509L235 508M310 508L311 509L310 508M227 509L228 510L227 509M302 509L303 510L302 509M203 510L204 511L203 510M278 510L279 511L278 510M236.333 513.667L236.667 514.333L236.333 513.667M311.333 513.667L311.667 514.333L311.333 513.667M335 513L336 514L335 513M349 513L349 538L350 538L349 513M397 513L398 514L397 513M187 514L188 515L187 514M202.333 514.667L202.667 515.333L202.333 514.667M277.333 514.667L277.667 515.333L277.333 514.667M185 515L186 516L185 515M261 515L262 516L261 515M327 515L328 516L327 515M387 515L388 516L387 515M265 517L266 518L265 517M185 518L186 519L185 518M321 518L322 519L321 518M236 519L237 520L236 519M250 519L251 520L250 519M311 519L312 520L311 519M335 519L336 520L335 519z"/>
<path style="fill:#f7f7f9; stroke:none;" d="M340 519C337.954 519.167 335.984 519.366 333.996 519.928C317.912 524.478 334.767 538.072 339.397 526.892C340.377 524.524 339.998 521.505 340 519z"/>
<path style="fill:#fbbe07; stroke:none;" d="M176 520L177 521L176 520M319 520L320 521L319 520M202.333 521.667L202.667 522.333L202.333 521.667M211 521L212 522L211 521M277.333 521.667L277.667 522.333L277.333 521.667M286 521L287 522L286 521M387.333 521.667L387.667 522.333L387.333 521.667M257 522L258 523L257 522M259 523L260 524L259 523M397 523L398 524L397 523M317 524L318 525L317 524M189 525L190 526L189 525M326 525L327 526L326 525M203 526L204 527L203 526M278 526L279 527L278 526M388 526L389 527L388 526M399 527L400 528L399 527M244 528L245 529L244 528M326 528L327 529L326 528M414 528L415 529L414 528M181 529L182 530L181 529M401 529L402 530L401 529M205 530L206 531L205 530M217 530L218 531L217 530M270 530L271 531L270 530M280 530L281 531L280 530M292 530L293 531L292 530M317 530L318 531L317 530M224 531L225 532L224 531M299 531L300 532L299 531M330 531L331 532L330 531M333 531L334 532L333 531M193 532L194 533L193 532M234 533L235 534L234 533M309 533L310 534L309 533M233 535L234 536L233 535M308 535L309 536L308 535M341 535L342 536L341 535M231 536L232 537L231 536M306 536L307 537L306 536M396 536L397 537L396 536M415 536L416 537L415 536M229 537L230 538L229 537M304 537L305 538L304 537M398 537L399 538L398 537M413 537L414 538L413 537M251 538L252 539L251 538M260 538L261 539L260 538M325 538L326 539L325 538M332 538L333 539L332 538z"/>
</svg>
