<svg version="1.1" id="Layer_1" xmlns="http://www.w3.org/2000/svg" xmlns:xlink="http://www.w3.org/1999/xlink" x="0px" y="0px"
	 width="100%" viewBox="0 0 920 920" enable-background="new 0 0 920 920" xml:space="preserve">
<path fill="#FFFFFF" opacity="1.000000" stroke="none" 
	d="
M544.000000,921.000000 
	C362.666656,921.000000 181.833328,921.000000 1.000000,921.000000 
	C1.000000,614.333313 1.000000,307.666656 1.000000,1.000000 
	C307.666656,1.000000 614.333313,1.000000 921.000000,1.000000 
	C921.000000,307.666656 921.000000,614.333313 921.000000,921.000000 
	C795.500000,921.000000 670.000000,921.000000 544.000000,921.000000 
M266.989532,265.136200 
	C269.745758,262.338867 272.325623,259.337646 275.286133,256.776489 
	C298.655884,236.558945 324.018433,219.490952 352.602081,207.357437 
	C379.931274,195.756409 408.370087,188.611298 437.871368,186.128799 
	C456.535278,184.558258 475.279938,184.832443 493.946472,187.152969 
	C518.884277,190.253113 543.011414,196.412994 566.227417,206.024323 
	C592.517944,216.908524 616.638184,231.403412 638.272461,249.936829 
	C644.383545,255.171997 650.360046,260.564301 655.445557,265.045105 
	C698.884460,221.866714 742.175110,178.835678 786.204895,135.069916 
	C772.169434,122.923683 758.971741,110.576950 744.820374,99.442284 
	C712.064941,73.669479 676.330933,52.861729 637.809204,36.768524 
	C588.626526,16.221472 537.453857,4.357689 484.284943,2.088190 
	C455.106995,0.842738 425.878845,1.669948 396.805542,5.793259 
	C368.593658,9.794398 340.965820,16.245588 314.066437,25.358227 
	C267.740204,41.052048 224.556091,63.167545 185.800446,93.129066 
	C168.688324,106.358238 152.997162,121.425438 136.071915,135.966034 
	C118.708954,152.885239 103.192001,171.400909 88.972801,190.994812 
	C67.872887,220.070251 50.555946,251.255432 36.627865,284.402771 
	C24.221624,313.928284 14.942067,344.405273 9.245855,375.815674 
	C5.744035,395.125641 3.791375,414.809845 2.556061,434.415039 
	C0.821152,461.949127 1.312799,489.532196 4.731769,516.995728 
	C8.108786,544.122253 13.951790,570.661621 21.930414,596.828552 
	C31.444611,628.031616 44.425034,657.672302 60.232388,686.110229 
	C76.379097,715.158569 95.689575,742.007141 117.828926,766.783875 
	C123.551979,773.188721 129.852859,779.077209 136.051117,785.849915 
	C140.941299,790.519897 145.817184,795.205017 150.724213,799.857239 
	C170.559280,818.662598 192.404556,834.841553 215.421082,849.511719 
	C239.843689,865.078125 265.385040,878.636475 292.550812,888.524841 
	C314.883423,896.653931 337.660522,904.057861 360.798920,909.335449 
	C383.076569,914.416687 405.992828,917.132751 428.776184,919.411377 
	C444.284241,920.962402 460.082184,920.697693 475.686340,919.933777 
	C495.649689,918.956421 515.745117,917.869324 535.431824,914.666870 
	C570.408203,908.977112 604.406067,899.384094 637.178162,885.470215 
	C659.848083,875.845398 681.729614,864.849304 702.692139,852.002319 
	C725.320068,838.134705 746.535706,822.309082 766.312744,804.618835 
	C773.208374,798.450745 779.539368,791.651184 786.731689,784.851196 
	C795.071838,775.858582 803.975891,767.317627 811.623108,757.769958 
	C823.862000,742.489624 835.948425,726.999207 846.857056,710.763000 
	C861.350464,689.191284 873.888611,666.356323 883.363220,642.100525 
	C890.937988,622.708618 897.986877,603.058472 904.080872,583.158997 
	C908.232300,569.602844 911.082336,555.530334 913.172424,541.489014 
	C916.128967,521.626038 919.098999,501.620483 919.765442,481.599396 
	C920.524963,458.781647 919.315613,435.844696 917.877747,413.027893 
	C917.033508,399.630768 913.880493,386.391602 912.199646,373.026825 
	C911.718262,369.199432 909.942810,368.966217 906.961792,368.967010 
	C759.986206,369.005219 613.010620,369.014954 466.035065,368.923584 
	C462.045349,368.921082 460.823761,370.109833 460.923523,374.063477 
	C461.227112,386.092804 461.262390,398.131012 461.255341,410.165649 
	C461.246216,425.677277 461.021484,441.188904 461.026337,456.700470 
	C461.030884,471.160309 461.299316,485.620148 461.296204,500.079926 
	C461.292908,515.588196 461.226746,531.098755 460.933563,546.603516 
	C460.840912,551.504517 462.194153,553.151917 467.520844,553.138977 
	C550.006714,552.940063 632.493103,553.000000 714.979431,553.000000 
	C716.887024,553.000000 718.794617,553.000000 721.123169,553.000000 
	C720.228455,555.222778 719.598877,556.715820 719.022583,558.229126 
	C709.958069,582.031921 698.323120,604.486938 682.698608,624.638977 
	C674.315247,635.451477 664.966614,645.515564 655.527039,656.344238 
	C638.593994,673.473450 619.847839,688.371704 598.622375,699.714233 
	C583.958740,707.550232 568.856384,714.820557 553.338318,720.739563 
	C532.435730,728.712280 510.615143,733.908569 488.160400,735.041382 
	C471.009552,735.906616 453.713318,736.935364 436.645233,735.675903 
	C411.718262,733.836609 387.441437,728.008728 363.914978,719.153564 
	C343.855652,711.603516 324.709015,702.199280 307.334351,689.838562 
	C292.949860,679.605042 279.831909,667.591309 265.836517,655.842346 
	C265.316895,655.205933 264.798920,654.568115 264.277435,653.933228 
	C253.103531,640.329651 241.033417,627.351990 230.984528,612.962769 
	C218.762772,595.462158 209.463989,576.212708 202.098312,556.029541 
	C193.592102,532.721191 187.899170,508.754364 186.279800,484.124573 
	C185.166733,467.195740 186.182816,450.069305 187.107849,433.078033 
	C188.383698,409.642517 194.465683,387.183136 202.478363,365.184204 
	C212.247147,338.363831 225.977188,313.769714 243.713882,291.467590 
	C250.878174,282.459229 258.776062,274.034271 266.989532,265.136200 
z"/>
<path fill="#4285F4" opacity="1.000000" stroke="none" 
	d="
M656.053650,655.917419 
	C664.966614,645.515564 674.315247,635.451477 682.698608,624.638977 
	C698.323120,604.486938 709.958069,582.031921 719.022583,558.229126 
	C719.598877,556.715820 720.228455,555.222778 721.123169,553.000000 
	C718.794617,553.000000 716.887024,553.000000 714.979431,553.000000 
	C632.493103,553.000000 550.006714,552.940063 467.520844,553.138977 
	C462.194153,553.151917 460.840912,551.504517 460.933563,546.603516 
	C461.226746,531.098755 461.292908,515.588196 461.296204,500.079926 
	C461.299316,485.620148 461.030884,471.160309 461.026337,456.700470 
	C461.021484,441.188904 461.246216,425.677277 461.255341,410.165649 
	C461.262390,398.131012 461.227112,386.092804 460.923523,374.063477 
	C460.823761,370.109833 462.045349,368.921082 466.035065,368.923584 
	C613.010620,369.014954 759.986206,369.005219 906.961792,368.967010 
	C909.942810,368.966217 911.718262,369.199432 912.199646,373.026825 
	C913.880493,386.391602 917.033508,399.630768 917.877747,413.027893 
	C919.315613,435.844696 920.524963,458.781647 919.765442,481.599396 
	C919.098999,501.620483 916.128967,521.626038 913.172424,541.489014 
	C911.082336,555.530334 908.232300,569.602844 904.080872,583.158997 
	C897.986877,603.058472 890.937988,622.708618 883.363220,642.100525 
	C873.888611,666.356323 861.350464,689.191284 846.857056,710.763000 
	C835.948425,726.999207 823.862000,742.489624 811.623108,757.769958 
	C803.975891,767.317627 795.071838,775.858582 786.109985,784.860718 
	C743.808167,743.228333 702.129700,701.584717 660.440125,659.952271 
	C659.035583,658.549622 657.518311,657.259827 656.053650,655.917419 
z"/>
<path fill="#34A853" opacity="1.000000" stroke="none" 
	d="
M655.790344,656.130859 
	C657.518311,657.259827 659.035583,658.549622 660.440125,659.952271 
	C702.129700,701.584717 743.808167,743.228333 785.808228,785.005127 
	C779.539368,791.651184 773.208374,798.450745 766.312744,804.618835 
	C746.535706,822.309082 725.320068,838.134705 702.692139,852.002319 
	C681.729614,864.849304 659.848083,875.845398 637.178162,885.470215 
	C604.406067,899.384094 570.408203,908.977112 535.431824,914.666870 
	C515.745117,917.869324 495.649689,918.956421 475.686340,919.933777 
	C460.082184,920.697693 444.284241,920.962402 428.776184,919.411377 
	C405.992828,917.132751 383.076569,914.416687 360.798920,909.335449 
	C337.660522,904.057861 314.883423,896.653931 292.550812,888.524841 
	C265.385040,878.636475 239.843689,865.078125 215.421082,849.511719 
	C192.404556,834.841553 170.559280,818.662598 150.724213,799.857239 
	C145.817184,795.205017 140.941299,790.519897 136.290649,785.376648 
	C145.570831,775.884094 154.616074,766.869385 163.650848,757.844238 
	C173.276108,748.229370 182.891388,738.604553 192.511246,728.984375 
	C206.031128,715.463928 219.550949,701.943359 233.071274,688.423401 
	C238.839920,682.654846 244.545044,676.820801 250.398468,671.139587 
	C255.563629,666.126282 260.894867,661.284058 266.152771,656.366333 
	C279.831909,667.591309 292.949860,679.605042 307.334351,689.838562 
	C324.709015,702.199280 343.855652,711.603516 363.914978,719.153564 
	C387.441437,728.008728 411.718262,733.836609 436.645233,735.675903 
	C453.713318,736.935364 471.009552,735.906616 488.160400,735.041382 
	C510.615143,733.908569 532.435730,728.712280 553.338318,720.739563 
	C568.856384,714.820557 583.958740,707.550232 598.622375,699.714233 
	C619.847839,688.371704 638.593994,673.473450 655.790344,656.130859 
z"/>
<path fill="#FBBC05" opacity="1.000000" stroke="none" 
	d="
M265.994659,656.104370 
	C260.894867,661.284058 255.563629,666.126282 250.398468,671.139587 
	C244.545044,676.820801 238.839920,682.654846 233.071274,688.423401 
	C219.550949,701.943359 206.031128,715.463928 192.511246,728.984375 
	C182.891388,738.604553 173.276108,748.229370 163.650848,757.844238 
	C154.616074,766.869385 145.570831,775.884094 136.209229,785.053101 
	C129.852859,779.077209 123.551979,773.188721 117.828926,766.783875 
	C95.689575,742.007141 76.379097,715.158569 60.232388,686.110229 
	C44.425034,657.672302 31.444611,628.031616 21.930414,596.828552 
	C13.951790,570.661621 8.108786,544.122253 4.731769,516.995728 
	C1.312799,489.532196 0.821152,461.949127 2.556061,434.415039 
	C3.791375,414.809845 5.744035,395.125641 9.245855,375.815674 
	C14.942067,344.405273 24.221624,313.928284 36.627865,284.402771 
	C50.555946,251.255432 67.872887,220.070251 88.972801,190.994812 
	C103.192001,171.400909 118.708954,152.885239 136.546814,136.132889 
	C137.570877,136.922531 138.087875,137.577454 138.673782,138.163498 
	C180.210449,179.710129 221.750977,221.252899 263.304596,262.782562 
	C264.237671,263.715088 265.324829,264.493500 266.340088,265.343811 
	C258.776062,274.034271 250.878174,282.459229 243.713882,291.467590 
	C225.977188,313.769714 212.247147,338.363831 202.478363,365.184204 
	C194.465683,387.183136 188.383698,409.642517 187.107849,433.078033 
	C186.182816,450.069305 185.166733,467.195740 186.279800,484.124573 
	C187.899170,508.754364 193.592102,532.721191 202.098312,556.029541 
	C209.463989,576.212708 218.762772,595.462158 230.984528,612.962769 
	C241.033417,627.351990 253.103531,640.329651 264.277435,653.933228 
	C264.798920,654.568115 265.316895,655.205933 265.994659,656.104370 
z"/>
<path fill="#EA4335" opacity="1.000000" stroke="none" 
	d="
M266.664795,265.239990 
	C265.324829,264.493500 264.237671,263.715088 263.304596,262.782562 
	C221.750977,221.252899 180.210449,179.710129 138.673782,138.163498 
	C138.087875,137.577454 137.570877,136.922531 136.841309,135.978973 
	C152.997162,121.425438 168.688324,106.358238 185.800446,93.129066 
	C224.556091,63.167545 267.740204,41.052048 314.066437,25.358227 
	C340.965820,16.245588 368.593658,9.794398 396.805542,5.793259 
	C425.878845,1.669948 455.106995,0.842738 484.284943,2.088190 
	C537.453857,4.357689 588.626526,16.221472 637.809204,36.768524 
	C676.330933,52.861729 712.064941,73.669479 744.820374,99.442284 
	C758.971741,110.576950 772.169434,122.923683 786.204895,135.069916 
	C742.175110,178.835678 698.884460,221.866714 655.445557,265.045105 
	C650.360046,260.564301 644.383545,255.171997 638.272461,249.936829 
	C616.638184,231.403412 592.517944,216.908524 566.227417,206.024323 
	C543.011414,196.412994 518.884277,190.253113 493.946472,187.152969 
	C475.279938,184.832443 456.535278,184.558258 437.871368,186.128799 
	C408.370087,188.611298 379.931274,195.756409 352.602081,207.357437 
	C324.018433,219.490952 298.655884,236.558945 275.286133,256.776489 
	C272.325623,259.337646 269.745758,262.338867 266.664795,265.239990 
z"/>
</svg>