<svg version="1.1" id="Layer_1" xmlns="http://www.w3.org/2000/svg" xmlns:xlink="http://www.w3.org/1999/xlink" x="0px" y="0px"
	 width="100%" viewBox="0 0 2048 2048" enable-background="new 0 0 2048 2048" xml:space="preserve">
<path fill="#F3F3F3" opacity="1.000000" stroke="none" 
	d="
M2049.000000,787.000000 
	C2049.000000,1206.500000 2048.994141,1625.500000 2049.093018,2044.500000 
	C2049.093994,2048.249268 2048.249023,2049.093262 2044.500000,2049.092773 
	C1364.833374,2048.996338 685.166687,2048.996338 5.500014,2049.092773 
	C1.751005,2049.093262 0.906756,2048.249023 0.907286,2044.500000 
	C1.003642,1363.333374 1.000000,682.166687 1.000000,1.000000 
	C682.166687,1.000000 1363.333374,1.003609 2044.500000,0.907290 
	C2048.249023,0.906760 2049.094727,1.750837 2049.093262,5.500036 
	C2048.990479,265.833344 2049.000000,526.166687 2049.000000,787.000000 
z"/>
<path fill="#81BC06" opacity="1.000000" stroke="none" 
	d="
M1069.745117,90.343292 
	C1071.484741,90.127357 1072.980835,90.027367 1074.476807,90.027328 
	C1368.180420,90.020576 1661.884033,90.020889 1955.587646,90.022148 
	C1956.420532,90.022156 1957.253418,90.039581 1958.550903,90.121796 
	C1959.176025,90.298012 1959.336670,90.401283 1959.651367,90.745819 
	C1959.863525,92.982956 1959.972290,94.978821 1959.972412,96.974693 
	C1959.979858,389.273102 1959.979370,681.571533 1959.979248,973.869934 
	C1959.979248,980.558167 1959.978271,980.552979 1953.589355,980.408813 
	C1952.256958,980.378723 1950.923096,980.403687 1949.589966,980.403687 
	C1658.958008,980.403687 1368.326172,980.403687 1077.694214,980.403320 
	C1076.027710,980.403320 1074.354980,980.303955 1072.696289,980.416870 
	C1070.253174,980.583313 1069.445923,979.415833 1069.583740,977.140259 
	C1069.684204,975.480042 1069.596802,973.808533 1069.596802,972.142090 
	C1069.596313,681.010193 1069.597412,389.878326 1069.579224,98.746429 
	C1069.578979,96.434639 1069.318359,94.122856 1069.173218,91.398941 
	C1069.278442,90.826523 1069.390015,90.666214 1069.745117,90.343292 
z"/>
<path fill="#FFBA08" opacity="1.000000" stroke="none" 
	d="
M1959.980835,1557.000000 
	C1959.980835,1689.496704 1959.954224,1821.493530 1960.083984,1953.490112 
	C1960.088867,1958.419312 1959.241455,1960.120483 1953.766724,1960.117676 
	C1660.774048,1959.963013 1367.781128,1959.972412 1074.788330,1960.065430 
	C1070.628174,1960.066772 1069.459717,1959.504395 1069.462646,1954.768677 
	C1069.642822,1661.609375 1069.634644,1368.449829 1069.520752,1075.290405 
	C1069.518921,1070.644897 1070.831177,1069.526978 1075.353882,1069.528564 
	C1367.680054,1069.632446 1660.006104,1069.621826 1952.332275,1069.634399 
	C1953.989502,1069.634399 1955.648071,1069.914917 1957.303467,1069.889404 
	C1959.544312,1069.855103 1960.158325,1070.999878 1959.998169,1073.012695 
	C1959.892700,1074.337524 1959.980713,1075.677734 1959.980713,1077.010986 
	C1959.980835,1236.840698 1959.980835,1396.670288 1959.980835,1557.000000 
z"/>
<path fill="#F35325" opacity="1.000000" stroke="none" 
	d="
M979.666626,90.748444 
	C980.020630,93.472336 980.372437,95.955490 980.372620,98.438683 
	C980.397217,390.218628 980.390686,681.998535 980.445312,973.778503 
	C980.446106,977.997498 980.551147,980.557312 974.642761,980.553650 
	C681.363220,980.373291 388.083557,980.395508 94.803886,980.393555 
	C93.970932,980.393555 93.137970,980.366760 91.870636,980.265198 
	C91.214020,980.234985 90.991776,980.292114 90.475159,980.170898 
	C90.127472,978.496399 90.027473,977.000366 90.027435,975.504333 
	C90.020691,681.806885 90.021027,388.109406 90.022339,94.411957 
	C90.022346,93.579132 90.040359,92.746300 90.121490,91.448746 
	C90.296883,90.823647 90.400734,90.663277 90.745674,90.347939 
	C92.482346,90.135605 93.977928,90.027992 95.473511,90.027954 
	C389.010834,90.020752 682.548157,90.021141 976.085510,90.022392 
	C976.751770,90.022392 977.418091,90.038689 978.549683,90.114090 
	C979.176758,90.289780 979.338501,90.398743 979.666626,90.748444 
z"/>
<path fill="#05A6F0" opacity="1.000000" stroke="none" 
	d="
M90.748123,1070.332397 
	C92.966141,1069.979858 94.943405,1069.633179 96.920708,1069.633057 
	C389.352051,1069.609009 681.783447,1069.624512 974.214722,1069.491821 
	C979.309692,1069.489502 980.505676,1070.801636 980.503479,1075.822632 
	C980.376404,1367.920776 980.390869,1660.018921 980.373596,1952.117065 
	C980.373474,1954.105103 980.124023,1956.093140 979.912964,1958.547119 
	C979.722839,1959.173340 979.610657,1959.333740 979.255371,1959.658447 
	C977.515991,1959.875732 976.019836,1959.974731 974.523621,1959.974731 
	C681.153076,1959.981323 387.782501,1959.981079 94.411934,1959.979736 
	C93.579056,1959.979736 92.746178,1959.960571 91.448486,1959.879395 
	C90.823402,1959.704102 90.663132,1959.599854 90.347313,1959.254395 
	C90.134109,1957.517822 90.025970,1956.022217 90.025932,1954.526611 
	C90.018707,1660.989380 90.019127,1367.452271 90.020447,1073.915039 
	C90.020447,1073.248779 90.037437,1072.582520 90.111908,1071.450684 
	C90.287346,1070.823608 90.397362,1070.661865 90.748123,1070.332397 
z"/>
<path fill="#F35A2D" opacity="1.000000" stroke="none" 
	d="
M90.739258,90.165070 
	C90.888496,90.436058 90.735275,90.637306 90.360077,90.890366 
	C90.021393,90.606056 90.120972,90.323769 90.739258,90.165070 
z"/>
<path fill="#F35A2D" opacity="1.000000" stroke="none" 
	d="
M979.855835,90.736450 
	C979.583557,90.889015 979.375977,90.733215 979.112549,90.351288 
	C979.302856,90.281792 979.590820,90.382767 979.855835,90.736450 
z"/>
<path fill="#86BF0F" opacity="1.000000" stroke="none" 
	d="
M1069.735352,90.150055 
	C1069.885620,90.429420 1069.726440,90.634590 1069.339111,90.891502 
	C1069.271973,90.697693 1069.377075,90.408562 1069.735352,90.150055 
z"/>
<path fill="#86BF0F" opacity="1.000000" stroke="none" 
	d="
M1959.834961,90.739082 
	C1959.562378,90.889481 1959.361328,90.736626 1959.108887,90.361618 
	C1959.394165,90.019440 1959.677124,90.118225 1959.834961,90.739082 
z"/>
<path fill="#F35A2D" opacity="1.000000" stroke="none" 
	d="
M90.169846,980.265320 
	C90.390800,980.016235 90.600807,980.040039 91.123543,980.120850 
	C91.117012,980.675659 90.753334,981.015930 90.169846,980.265320 
z"/>
<path fill="#0FA9F1" opacity="1.000000" stroke="none" 
	d="
M90.737015,1070.144653 
	C90.888031,1070.414795 90.731461,1070.622803 90.348236,1070.887085 
	C90.279953,1070.698364 90.382568,1070.411377 90.737015,1070.144653 
z"/>
<path fill="#0FA9F1" opacity="1.000000" stroke="none" 
	d="
M90.167320,1959.259277 
	C90.434883,1959.112305 90.636230,1959.265869 90.889740,1959.641235 
	C90.983665,1959.808350 90.491684,1959.855225 90.491684,1959.855225 
	C90.491684,1959.855225 90.142876,1959.505127 90.167320,1959.259277 
z"/>
<path fill="#0FA9F1" opacity="1.000000" stroke="none" 
	d="
M979.263733,1959.848022 
	C979.115723,1959.573608 979.275208,1959.367798 979.662842,1959.109253 
	C979.728394,1959.299805 979.621826,1959.586426 979.263733,1959.848022 
z"/>
</svg>